<mxfile host="app.diagrams.net" agent="Mozilla/5.0 (Macintosh; Intel Mac OS X 10_15_7) AppleWebKit/537.36 (KHTML, like Gecko) Chrome/135.0.0.0 Safari/537.36" version="26.2.14">
  <diagram name="Page-1" id="OkErCemOwEuDAzPWgcps">
    <mxGraphModel dx="2365" dy="2634" grid="1" gridSize="10" guides="1" tooltips="1" connect="1" arrows="1" fold="1" page="1" pageScale="1" pageWidth="827" pageHeight="1169" math="0" shadow="0">
      <root>
        <mxCell id="0" />
        <mxCell id="1" parent="0" />
        <mxCell id="W14jXyaXf3J3MWAlNBi8-1" value="&lt;font style=&quot;font-size: 18px;&quot;&gt;AXI STREAM&lt;/font&gt;&lt;div&gt;&lt;font size=&quot;3&quot;&gt;Interface&lt;/font&gt;&lt;/div&gt;&lt;div&gt;&lt;font size=&quot;3&quot;&gt;(Slave)&lt;/font&gt;&lt;/div&gt;" style="rounded=0;whiteSpace=wrap;html=1;" vertex="1" parent="1">
          <mxGeometry x="185" y="120" width="80" height="260" as="geometry" />
        </mxCell>
        <mxCell id="W14jXyaXf3J3MWAlNBi8-2" value="&lt;font style=&quot;font-size: 18px;&quot;&gt;AXI LITE&lt;/font&gt;&lt;div&gt;&lt;font size=&quot;3&quot;&gt;Interface&lt;/font&gt;&lt;/div&gt;&lt;div&gt;&lt;font size=&quot;3&quot;&gt;(Slave)&lt;/font&gt;&lt;/div&gt;" style="whiteSpace=wrap;html=1;" vertex="1" parent="1">
          <mxGeometry x="185" y="-220" width="75" height="280" as="geometry" />
        </mxCell>
        <mxCell id="W14jXyaXf3J3MWAlNBi8-3" value="&lt;font style=&quot;font-size: 24px;&quot;&gt;AXI MEM (Master)&lt;/font&gt;" style="whiteSpace=wrap;html=1;" vertex="1" parent="1">
          <mxGeometry x="579" y="-400" width="160" height="490" as="geometry" />
        </mxCell>
        <mxCell id="W14jXyaXf3J3MWAlNBi8-4" value="&lt;font style=&quot;font-size: 18px;&quot;&gt;AXI STREAM&lt;/font&gt;&lt;div&gt;&lt;font size=&quot;3&quot;&gt;Interface&lt;/font&gt;&lt;/div&gt;&lt;div&gt;&lt;font size=&quot;3&quot;&gt;(Master)&lt;/font&gt;&lt;/div&gt;" style="rounded=0;whiteSpace=wrap;html=1;" vertex="1" parent="1">
          <mxGeometry x="580" y="157" width="80" height="183" as="geometry" />
        </mxCell>
        <mxCell id="W14jXyaXf3J3MWAlNBi8-5" value="" style="endArrow=classic;html=1;rounded=0;strokeWidth=3;" edge="1" parent="1">
          <mxGeometry width="50" height="50" relative="1" as="geometry">
            <mxPoint x="490" y="187" as="sourcePoint" />
            <mxPoint x="578" y="187" as="targetPoint" />
          </mxGeometry>
        </mxCell>
        <mxCell id="W14jXyaXf3J3MWAlNBi8-6" value="&lt;font style=&quot;font-size: 18px;&quot;&gt;Clk&lt;/font&gt;" style="text;html=1;align=center;verticalAlign=middle;resizable=0;points=[];autosize=1;strokeColor=none;fillColor=none;" vertex="1" parent="1">
          <mxGeometry x="510" y="149" width="50" height="40" as="geometry" />
        </mxCell>
        <mxCell id="W14jXyaXf3J3MWAlNBi8-7" value="" style="endArrow=classic;html=1;rounded=0;entryX=0;entryY=0.209;entryDx=0;entryDy=0;entryPerimeter=0;strokeWidth=3;" edge="1" parent="1">
          <mxGeometry width="50" height="50" relative="1" as="geometry">
            <mxPoint x="490" y="260.5" as="sourcePoint" />
            <mxPoint x="580" y="260.5" as="targetPoint" />
          </mxGeometry>
        </mxCell>
        <mxCell id="W14jXyaXf3J3MWAlNBi8-8" value="&lt;font style=&quot;font-size: 18px;&quot;&gt;Reset&lt;/font&gt;" style="text;html=1;align=center;verticalAlign=middle;resizable=0;points=[];autosize=1;strokeColor=none;fillColor=none;" vertex="1" parent="1">
          <mxGeometry x="500" y="193" width="70" height="40" as="geometry" />
        </mxCell>
        <mxCell id="W14jXyaXf3J3MWAlNBi8-9" value="" style="endArrow=classic;html=1;rounded=0;entryX=0;entryY=0.209;entryDx=0;entryDy=0;entryPerimeter=0;strokeWidth=3;" edge="1" parent="1">
          <mxGeometry width="50" height="50" relative="1" as="geometry">
            <mxPoint x="490" y="299.5" as="sourcePoint" />
            <mxPoint x="580" y="299.5" as="targetPoint" />
          </mxGeometry>
        </mxCell>
        <mxCell id="W14jXyaXf3J3MWAlNBi8-10" value="&lt;font style=&quot;font-size: 18px;&quot;&gt;Ready&lt;/font&gt;" style="text;html=1;align=center;verticalAlign=middle;resizable=0;points=[];autosize=1;strokeColor=none;fillColor=none;" vertex="1" parent="1">
          <mxGeometry x="495" y="264.5" width="80" height="40" as="geometry" />
        </mxCell>
        <mxCell id="W14jXyaXf3J3MWAlNBi8-12" value="" style="endArrow=classic;html=1;rounded=0;strokeWidth=3;" edge="1" parent="1">
          <mxGeometry width="50" height="50" relative="1" as="geometry">
            <mxPoint x="660" y="215.5" as="sourcePoint" />
            <mxPoint x="780" y="214.5" as="targetPoint" />
          </mxGeometry>
        </mxCell>
        <mxCell id="W14jXyaXf3J3MWAlNBi8-13" value="&lt;font style=&quot;font-size: 18px;&quot;&gt;Valid&lt;/font&gt;" style="text;html=1;align=center;verticalAlign=middle;resizable=0;points=[];autosize=1;strokeColor=none;fillColor=none;" vertex="1" parent="1">
          <mxGeometry x="675" y="180.5" width="60" height="40" as="geometry" />
        </mxCell>
        <mxCell id="W14jXyaXf3J3MWAlNBi8-14" value="" style="endArrow=classic;html=1;rounded=0;strokeWidth=3;" edge="1" parent="1">
          <mxGeometry width="50" height="50" relative="1" as="geometry">
            <mxPoint x="660" y="256.5" as="sourcePoint" />
            <mxPoint x="780" y="256.5" as="targetPoint" />
          </mxGeometry>
        </mxCell>
        <mxCell id="W14jXyaXf3J3MWAlNBi8-15" value="&lt;font style=&quot;font-size: 18px;&quot;&gt;[31:0] Data&lt;/font&gt;" style="text;html=1;align=center;verticalAlign=middle;resizable=0;points=[];autosize=1;strokeColor=none;fillColor=none;" vertex="1" parent="1">
          <mxGeometry x="660" y="220.5" width="110" height="40" as="geometry" />
        </mxCell>
        <mxCell id="W14jXyaXf3J3MWAlNBi8-16" value="" style="endArrow=classic;html=1;rounded=0;strokeWidth=3;" edge="1" parent="1">
          <mxGeometry width="50" height="50" relative="1" as="geometry">
            <mxPoint x="660" y="295.5" as="sourcePoint" />
            <mxPoint x="780" y="294.5" as="targetPoint" />
          </mxGeometry>
        </mxCell>
        <mxCell id="W14jXyaXf3J3MWAlNBi8-17" value="&lt;font style=&quot;font-size: 18px;&quot;&gt;Last&lt;/font&gt;" style="text;html=1;align=center;verticalAlign=middle;resizable=0;points=[];autosize=1;strokeColor=none;fillColor=none;" vertex="1" parent="1">
          <mxGeometry x="685" y="259.5" width="60" height="40" as="geometry" />
        </mxCell>
        <mxCell id="W14jXyaXf3J3MWAlNBi8-18" value="" style="endArrow=classic;html=1;rounded=0;strokeWidth=3;" edge="1" parent="1">
          <mxGeometry width="50" height="50" relative="1" as="geometry">
            <mxPoint x="65" y="145" as="sourcePoint" />
            <mxPoint x="185" y="144" as="targetPoint" />
          </mxGeometry>
        </mxCell>
        <mxCell id="W14jXyaXf3J3MWAlNBi8-19" value="&lt;font style=&quot;font-size: 18px;&quot;&gt;Clk&lt;/font&gt;" style="text;html=1;align=center;verticalAlign=middle;resizable=0;points=[];autosize=1;strokeColor=none;fillColor=none;" vertex="1" parent="1">
          <mxGeometry x="100" y="110" width="50" height="40" as="geometry" />
        </mxCell>
        <mxCell id="W14jXyaXf3J3MWAlNBi8-20" value="" style="endArrow=classic;html=1;rounded=0;strokeWidth=3;" edge="1" parent="1">
          <mxGeometry width="50" height="50" relative="1" as="geometry">
            <mxPoint x="65" y="186" as="sourcePoint" />
            <mxPoint x="185" y="186" as="targetPoint" />
          </mxGeometry>
        </mxCell>
        <mxCell id="W14jXyaXf3J3MWAlNBi8-21" value="&lt;span style=&quot;font-size: 18px;&quot;&gt;Reset&lt;/span&gt;" style="text;html=1;align=center;verticalAlign=middle;resizable=0;points=[];autosize=1;strokeColor=none;fillColor=none;" vertex="1" parent="1">
          <mxGeometry x="85" y="150" width="70" height="40" as="geometry" />
        </mxCell>
        <mxCell id="W14jXyaXf3J3MWAlNBi8-22" value="" style="endArrow=classic;html=1;rounded=0;strokeWidth=3;" edge="1" parent="1">
          <mxGeometry width="50" height="50" relative="1" as="geometry">
            <mxPoint x="65" y="265.5" as="sourcePoint" />
            <mxPoint x="185" y="264.5" as="targetPoint" />
          </mxGeometry>
        </mxCell>
        <mxCell id="W14jXyaXf3J3MWAlNBi8-23" value="&lt;font style=&quot;font-size: 18px;&quot;&gt;Valid&lt;/font&gt;" style="text;html=1;align=center;verticalAlign=middle;resizable=0;points=[];autosize=1;strokeColor=none;fillColor=none;" vertex="1" parent="1">
          <mxGeometry x="90" y="224.5" width="60" height="40" as="geometry" />
        </mxCell>
        <mxCell id="W14jXyaXf3J3MWAlNBi8-24" value="" style="endArrow=classic;html=1;rounded=0;strokeWidth=3;" edge="1" parent="1">
          <mxGeometry width="50" height="50" relative="1" as="geometry">
            <mxPoint x="65" y="304.5" as="sourcePoint" />
            <mxPoint x="185" y="303.5" as="targetPoint" />
          </mxGeometry>
        </mxCell>
        <mxCell id="W14jXyaXf3J3MWAlNBi8-25" value="&lt;span style=&quot;font-size: 18px;&quot;&gt;[31:0] Data&lt;/span&gt;" style="text;html=1;align=center;verticalAlign=middle;resizable=0;points=[];autosize=1;strokeColor=none;fillColor=none;" vertex="1" parent="1">
          <mxGeometry x="65" y="269.5" width="110" height="40" as="geometry" />
        </mxCell>
        <mxCell id="W14jXyaXf3J3MWAlNBi8-26" value="" style="endArrow=classic;html=1;rounded=0;strokeWidth=3;" edge="1" parent="1">
          <mxGeometry width="50" height="50" relative="1" as="geometry">
            <mxPoint x="65" y="345.5" as="sourcePoint" />
            <mxPoint x="185" y="345.5" as="targetPoint" />
          </mxGeometry>
        </mxCell>
        <mxCell id="W14jXyaXf3J3MWAlNBi8-27" value="&lt;span style=&quot;font-size: 18px;&quot;&gt;Last&lt;/span&gt;" style="text;html=1;align=center;verticalAlign=middle;resizable=0;points=[];autosize=1;strokeColor=none;fillColor=none;" vertex="1" parent="1">
          <mxGeometry x="90" y="309.5" width="60" height="40" as="geometry" />
        </mxCell>
        <mxCell id="W14jXyaXf3J3MWAlNBi8-33" value="" style="endArrow=classic;html=1;rounded=0;strokeWidth=3;" edge="1" parent="1">
          <mxGeometry width="50" height="50" relative="1" as="geometry">
            <mxPoint x="265" y="256" as="sourcePoint" />
            <mxPoint x="385" y="256" as="targetPoint" />
          </mxGeometry>
        </mxCell>
        <mxCell id="W14jXyaXf3J3MWAlNBi8-34" value="&lt;span style=&quot;font-size: 18px;&quot;&gt;Ready&lt;/span&gt;" style="text;html=1;align=center;verticalAlign=middle;resizable=0;points=[];autosize=1;strokeColor=none;fillColor=none;" vertex="1" parent="1">
          <mxGeometry x="280" y="220" width="80" height="40" as="geometry" />
        </mxCell>
        <mxCell id="W14jXyaXf3J3MWAlNBi8-35" value="" style="endArrow=classic;html=1;rounded=0;strokeWidth=3;" edge="1" parent="1">
          <mxGeometry width="50" height="50" relative="1" as="geometry">
            <mxPoint x="65" y="-185" as="sourcePoint" />
            <mxPoint x="185" y="-186" as="targetPoint" />
          </mxGeometry>
        </mxCell>
        <mxCell id="W14jXyaXf3J3MWAlNBi8-36" value="&lt;font style=&quot;font-size: 18px;&quot;&gt;Clk&lt;/font&gt;" style="text;html=1;align=center;verticalAlign=middle;resizable=0;points=[];autosize=1;strokeColor=none;fillColor=none;" vertex="1" parent="1">
          <mxGeometry x="100" y="-220" width="50" height="40" as="geometry" />
        </mxCell>
        <mxCell id="W14jXyaXf3J3MWAlNBi8-37" value="" style="endArrow=classic;html=1;rounded=0;strokeWidth=3;" edge="1" parent="1">
          <mxGeometry width="50" height="50" relative="1" as="geometry">
            <mxPoint x="65" y="-144" as="sourcePoint" />
            <mxPoint x="185" y="-144" as="targetPoint" />
          </mxGeometry>
        </mxCell>
        <mxCell id="W14jXyaXf3J3MWAlNBi8-38" value="&lt;span style=&quot;font-size: 18px;&quot;&gt;Reset&lt;/span&gt;" style="text;html=1;align=center;verticalAlign=middle;resizable=0;points=[];autosize=1;strokeColor=none;fillColor=none;" vertex="1" parent="1">
          <mxGeometry x="85" y="-180" width="70" height="40" as="geometry" />
        </mxCell>
        <mxCell id="W14jXyaXf3J3MWAlNBi8-39" value="" style="endArrow=classic;html=1;rounded=0;strokeWidth=3;" edge="1" parent="1">
          <mxGeometry width="50" height="50" relative="1" as="geometry">
            <mxPoint x="65" y="-75" as="sourcePoint" />
            <mxPoint x="185" y="-76" as="targetPoint" />
          </mxGeometry>
        </mxCell>
        <mxCell id="W14jXyaXf3J3MWAlNBi8-40" value="&lt;font style=&quot;font-size: 18px;&quot;&gt;Valid&lt;/font&gt;" style="text;html=1;align=center;verticalAlign=middle;resizable=0;points=[];autosize=1;strokeColor=none;fillColor=none;" vertex="1" parent="1">
          <mxGeometry x="90" y="-111" width="60" height="40" as="geometry" />
        </mxCell>
        <mxCell id="W14jXyaXf3J3MWAlNBi8-41" value="" style="endArrow=classic;html=1;rounded=0;strokeWidth=3;" edge="1" parent="1">
          <mxGeometry width="50" height="50" relative="1" as="geometry">
            <mxPoint x="65" y="-36" as="sourcePoint" />
            <mxPoint x="185" y="-37" as="targetPoint" />
          </mxGeometry>
        </mxCell>
        <mxCell id="W14jXyaXf3J3MWAlNBi8-42" value="&lt;span style=&quot;font-size: 18px;&quot;&gt;[9:0] Width&lt;/span&gt;" style="text;html=1;align=center;verticalAlign=middle;resizable=0;points=[];autosize=1;strokeColor=none;fillColor=none;" vertex="1" parent="1">
          <mxGeometry x="65" y="-71" width="110" height="40" as="geometry" />
        </mxCell>
        <mxCell id="W14jXyaXf3J3MWAlNBi8-47" value="" style="endArrow=classic;html=1;rounded=0;strokeWidth=3;" edge="1" parent="1">
          <mxGeometry width="50" height="50" relative="1" as="geometry">
            <mxPoint x="260" y="-75" as="sourcePoint" />
            <mxPoint x="380" y="-75" as="targetPoint" />
          </mxGeometry>
        </mxCell>
        <mxCell id="W14jXyaXf3J3MWAlNBi8-48" value="&lt;span style=&quot;font-size: 18px;&quot;&gt;Ready&lt;/span&gt;" style="text;html=1;align=center;verticalAlign=middle;resizable=0;points=[];autosize=1;strokeColor=none;fillColor=none;" vertex="1" parent="1">
          <mxGeometry x="275" y="-111" width="80" height="40" as="geometry" />
        </mxCell>
        <mxCell id="W14jXyaXf3J3MWAlNBi8-49" value="" style="endArrow=classic;html=1;rounded=0;strokeWidth=3;" edge="1" parent="1">
          <mxGeometry width="50" height="50" relative="1" as="geometry">
            <mxPoint x="67" y="9" as="sourcePoint" />
            <mxPoint x="187" y="8" as="targetPoint" />
          </mxGeometry>
        </mxCell>
        <mxCell id="W14jXyaXf3J3MWAlNBi8-50" value="&lt;span style=&quot;font-size: 18px;&quot;&gt;[9:0] Height&lt;/span&gt;" style="text;html=1;align=center;verticalAlign=middle;resizable=0;points=[];autosize=1;strokeColor=none;fillColor=none;" vertex="1" parent="1">
          <mxGeometry x="65" y="-31" width="120" height="40" as="geometry" />
        </mxCell>
        <mxCell id="W14jXyaXf3J3MWAlNBi8-59" value="" style="endArrow=classic;html=1;rounded=0;strokeWidth=3;" edge="1" parent="1">
          <mxGeometry width="50" height="50" relative="1" as="geometry">
            <mxPoint x="70" y="47" as="sourcePoint" />
            <mxPoint x="190" y="47" as="targetPoint" />
          </mxGeometry>
        </mxCell>
        <mxCell id="W14jXyaXf3J3MWAlNBi8-60" value="&lt;span style=&quot;font-size: 18px;&quot;&gt;[7:0] Threshold&lt;/span&gt;" style="text;html=1;align=center;verticalAlign=middle;resizable=0;points=[];autosize=1;strokeColor=none;fillColor=none;" vertex="1" parent="1">
          <mxGeometry x="50" y="11" width="140" height="40" as="geometry" />
        </mxCell>
        <mxCell id="W14jXyaXf3J3MWAlNBi8-61" value="" style="endArrow=classic;html=1;rounded=0;strokeWidth=3;" edge="1" parent="1">
          <mxGeometry width="50" height="50" relative="1" as="geometry">
            <mxPoint x="65" y="-109" as="sourcePoint" />
            <mxPoint x="185" y="-109" as="targetPoint" />
          </mxGeometry>
        </mxCell>
        <mxCell id="W14jXyaXf3J3MWAlNBi8-62" value="&lt;span style=&quot;font-size: 18px;&quot;&gt;Enable&lt;/span&gt;" style="text;html=1;align=center;verticalAlign=middle;resizable=0;points=[];autosize=1;strokeColor=none;fillColor=none;" vertex="1" parent="1">
          <mxGeometry x="80" y="-145" width="80" height="40" as="geometry" />
        </mxCell>
        <mxCell id="W14jXyaXf3J3MWAlNBi8-64" value="" style="endArrow=classic;html=1;rounded=0;entryX=0;entryY=0.209;entryDx=0;entryDy=0;entryPerimeter=0;strokeWidth=3;" edge="1" parent="1">
          <mxGeometry width="50" height="50" relative="1" as="geometry">
            <mxPoint x="490" y="229" as="sourcePoint" />
            <mxPoint x="580" y="229" as="targetPoint" />
          </mxGeometry>
        </mxCell>
        <mxCell id="W14jXyaXf3J3MWAlNBi8-65" value="&lt;span style=&quot;font-size: 18px;&quot;&gt;Enable&lt;/span&gt;" style="text;html=1;align=center;verticalAlign=middle;resizable=0;points=[];autosize=1;strokeColor=none;fillColor=none;" vertex="1" parent="1">
          <mxGeometry x="490" y="228.5" width="80" height="40" as="geometry" />
        </mxCell>
        <mxCell id="W14jXyaXf3J3MWAlNBi8-70" value="" style="endArrow=classic;html=1;rounded=0;strokeWidth=3;" edge="1" parent="1">
          <mxGeometry width="50" height="50" relative="1" as="geometry">
            <mxPoint x="65" y="229" as="sourcePoint" />
            <mxPoint x="185" y="229" as="targetPoint" />
          </mxGeometry>
        </mxCell>
        <mxCell id="W14jXyaXf3J3MWAlNBi8-71" value="&lt;span style=&quot;font-size: 18px;&quot;&gt;Enable&lt;/span&gt;" style="text;html=1;align=center;verticalAlign=middle;resizable=0;points=[];autosize=1;strokeColor=none;fillColor=none;" vertex="1" parent="1">
          <mxGeometry x="70" y="193" width="80" height="40" as="geometry" />
        </mxCell>
        <mxCell id="W14jXyaXf3J3MWAlNBi8-72" value="" style="endArrow=classic;html=1;rounded=0;strokeWidth=3;" edge="1" parent="1">
          <mxGeometry width="50" height="50" relative="1" as="geometry">
            <mxPoint x="459" y="-355" as="sourcePoint" />
            <mxPoint x="579" y="-356" as="targetPoint" />
          </mxGeometry>
        </mxCell>
        <mxCell id="W14jXyaXf3J3MWAlNBi8-73" value="&lt;font style=&quot;font-size: 18px;&quot;&gt;Clk&lt;/font&gt;" style="text;html=1;align=center;verticalAlign=middle;resizable=0;points=[];autosize=1;strokeColor=none;fillColor=none;" vertex="1" parent="1">
          <mxGeometry x="494" y="-390" width="50" height="40" as="geometry" />
        </mxCell>
        <mxCell id="W14jXyaXf3J3MWAlNBi8-74" value="" style="endArrow=classic;html=1;rounded=0;strokeWidth=3;" edge="1" parent="1">
          <mxGeometry width="50" height="50" relative="1" as="geometry">
            <mxPoint x="459" y="-314" as="sourcePoint" />
            <mxPoint x="579" y="-314" as="targetPoint" />
          </mxGeometry>
        </mxCell>
        <mxCell id="W14jXyaXf3J3MWAlNBi8-75" value="&lt;span style=&quot;font-size: 18px;&quot;&gt;Reset&lt;/span&gt;" style="text;html=1;align=center;verticalAlign=middle;resizable=0;points=[];autosize=1;strokeColor=none;fillColor=none;" vertex="1" parent="1">
          <mxGeometry x="479" y="-350" width="70" height="40" as="geometry" />
        </mxCell>
        <mxCell id="W14jXyaXf3J3MWAlNBi8-76" value="" style="endArrow=classic;html=1;rounded=0;strokeWidth=3;" edge="1" parent="1">
          <mxGeometry width="50" height="50" relative="1" as="geometry">
            <mxPoint x="459" y="-279" as="sourcePoint" />
            <mxPoint x="579" y="-279" as="targetPoint" />
          </mxGeometry>
        </mxCell>
        <mxCell id="W14jXyaXf3J3MWAlNBi8-77" value="&lt;span style=&quot;font-size: 18px;&quot;&gt;Enable&lt;/span&gt;" style="text;html=1;align=center;verticalAlign=middle;resizable=0;points=[];autosize=1;strokeColor=none;fillColor=none;" vertex="1" parent="1">
          <mxGeometry x="474" y="-315" width="80" height="40" as="geometry" />
        </mxCell>
        <mxCell id="W14jXyaXf3J3MWAlNBi8-78" value="" style="endArrow=classic;html=1;rounded=0;strokeWidth=3;" edge="1" parent="1">
          <mxGeometry width="50" height="50" relative="1" as="geometry">
            <mxPoint x="740" y="-340" as="sourcePoint" />
            <mxPoint x="860" y="-341" as="targetPoint" />
          </mxGeometry>
        </mxCell>
        <mxCell id="W14jXyaXf3J3MWAlNBi8-79" value="&lt;font style=&quot;font-size: 18px;&quot;&gt;WValid&lt;/font&gt;" style="text;html=1;align=center;verticalAlign=middle;resizable=0;points=[];autosize=1;strokeColor=none;fillColor=none;" vertex="1" parent="1">
          <mxGeometry x="759" y="-376" width="80" height="40" as="geometry" />
        </mxCell>
        <mxCell id="W14jXyaXf3J3MWAlNBi8-82" value="" style="endArrow=classic;html=1;rounded=0;strokeWidth=3;" edge="1" parent="1">
          <mxGeometry width="50" height="50" relative="1" as="geometry">
            <mxPoint x="739" y="-302" as="sourcePoint" />
            <mxPoint x="859" y="-303" as="targetPoint" />
          </mxGeometry>
        </mxCell>
        <mxCell id="W14jXyaXf3J3MWAlNBi8-83" value="&lt;span style=&quot;font-size: 18px;&quot;&gt;[31:0] WData&lt;/span&gt;" style="text;html=1;align=center;verticalAlign=middle;resizable=0;points=[];autosize=1;strokeColor=none;fillColor=none;" vertex="1" parent="1">
          <mxGeometry x="734" y="-340" width="130" height="40" as="geometry" />
        </mxCell>
        <mxCell id="W14jXyaXf3J3MWAlNBi8-84" value="" style="endArrow=classic;html=1;rounded=0;strokeWidth=3;" edge="1" parent="1">
          <mxGeometry width="50" height="50" relative="1" as="geometry">
            <mxPoint x="742" y="-264" as="sourcePoint" />
            <mxPoint x="862" y="-264" as="targetPoint" />
          </mxGeometry>
        </mxCell>
        <mxCell id="W14jXyaXf3J3MWAlNBi8-85" value="&lt;span style=&quot;font-size: 18px;&quot;&gt;WLast&lt;/span&gt;" style="text;html=1;align=center;verticalAlign=middle;resizable=0;points=[];autosize=1;strokeColor=none;fillColor=none;" vertex="1" parent="1">
          <mxGeometry x="757" y="-300" width="70" height="40" as="geometry" />
        </mxCell>
        <mxCell id="W14jXyaXf3J3MWAlNBi8-87" value="" style="endArrow=classic;html=1;rounded=0;strokeWidth=3;" edge="1" parent="1">
          <mxGeometry width="50" height="50" relative="1" as="geometry">
            <mxPoint x="459" y="-230" as="sourcePoint" />
            <mxPoint x="579" y="-230" as="targetPoint" />
          </mxGeometry>
        </mxCell>
        <mxCell id="W14jXyaXf3J3MWAlNBi8-88" value="&lt;span style=&quot;font-size: 18px;&quot;&gt;WREADY&lt;/span&gt;" style="text;html=1;align=center;verticalAlign=middle;resizable=0;points=[];autosize=1;strokeColor=none;fillColor=none;" vertex="1" parent="1">
          <mxGeometry x="464" y="-260" width="100" height="40" as="geometry" />
        </mxCell>
        <mxCell id="W14jXyaXf3J3MWAlNBi8-89" value="" style="endArrow=classic;html=1;rounded=0;strokeWidth=3;" edge="1" parent="1">
          <mxGeometry width="50" height="50" relative="1" as="geometry">
            <mxPoint x="460" y="-170" as="sourcePoint" />
            <mxPoint x="580" y="-170" as="targetPoint" />
          </mxGeometry>
        </mxCell>
        <mxCell id="W14jXyaXf3J3MWAlNBi8-90" value="&lt;span style=&quot;font-size: 18px;&quot;&gt;AWREADY&lt;/span&gt;" style="text;html=1;align=center;verticalAlign=middle;resizable=0;points=[];autosize=1;strokeColor=none;fillColor=none;" vertex="1" parent="1">
          <mxGeometry x="460" y="-200" width="110" height="40" as="geometry" />
        </mxCell>
        <mxCell id="W14jXyaXf3J3MWAlNBi8-91" value="" style="endArrow=classic;html=1;rounded=0;strokeWidth=3;" edge="1" parent="1">
          <mxGeometry width="50" height="50" relative="1" as="geometry">
            <mxPoint x="740" y="-196" as="sourcePoint" />
            <mxPoint x="860" y="-197" as="targetPoint" />
          </mxGeometry>
        </mxCell>
        <mxCell id="W14jXyaXf3J3MWAlNBi8-92" value="&lt;font style=&quot;font-size: 18px;&quot;&gt;AWValid&lt;/font&gt;" style="text;html=1;align=center;verticalAlign=middle;resizable=0;points=[];autosize=1;strokeColor=none;fillColor=none;" vertex="1" parent="1">
          <mxGeometry x="754" y="-232" width="90" height="40" as="geometry" />
        </mxCell>
        <mxCell id="W14jXyaXf3J3MWAlNBi8-93" value="" style="endArrow=classic;html=1;rounded=0;strokeWidth=3;" edge="1" parent="1">
          <mxGeometry width="50" height="50" relative="1" as="geometry">
            <mxPoint x="739" y="-158" as="sourcePoint" />
            <mxPoint x="859" y="-159" as="targetPoint" />
          </mxGeometry>
        </mxCell>
        <mxCell id="W14jXyaXf3J3MWAlNBi8-94" value="&lt;span style=&quot;font-size: 18px;&quot;&gt;[31:0] AWADDR&lt;/span&gt;" style="text;html=1;align=center;verticalAlign=middle;resizable=0;points=[];autosize=1;strokeColor=none;fillColor=none;" vertex="1" parent="1">
          <mxGeometry x="734" y="-194" width="150" height="40" as="geometry" />
        </mxCell>
        <mxCell id="W14jXyaXf3J3MWAlNBi8-97" value="" style="endArrow=classic;html=1;rounded=0;strokeWidth=3;" edge="1" parent="1">
          <mxGeometry width="50" height="50" relative="1" as="geometry">
            <mxPoint x="460" y="30" as="sourcePoint" />
            <mxPoint x="580" y="30" as="targetPoint" />
          </mxGeometry>
        </mxCell>
        <mxCell id="W14jXyaXf3J3MWAlNBi8-98" value="&lt;span style=&quot;font-size: 18px;&quot;&gt;ARREADY&lt;/span&gt;" style="text;html=1;align=center;verticalAlign=middle;resizable=0;points=[];autosize=1;strokeColor=none;fillColor=none;" vertex="1" parent="1">
          <mxGeometry x="460" width="110" height="40" as="geometry" />
        </mxCell>
        <mxCell id="W14jXyaXf3J3MWAlNBi8-99" value="" style="endArrow=classic;html=1;rounded=0;strokeWidth=3;" edge="1" parent="1">
          <mxGeometry width="50" height="50" relative="1" as="geometry">
            <mxPoint x="739" y="-76" as="sourcePoint" />
            <mxPoint x="859" y="-76" as="targetPoint" />
          </mxGeometry>
        </mxCell>
        <mxCell id="W14jXyaXf3J3MWAlNBi8-100" value="&lt;span style=&quot;font-size: 18px;&quot;&gt;RREADY&lt;/span&gt;" style="text;html=1;align=center;verticalAlign=middle;resizable=0;points=[];autosize=1;strokeColor=none;fillColor=none;" vertex="1" parent="1">
          <mxGeometry x="744" y="-106" width="100" height="40" as="geometry" />
        </mxCell>
        <mxCell id="W14jXyaXf3J3MWAlNBi8-101" value="" style="endArrow=classic;html=1;rounded=0;strokeWidth=3;" edge="1" parent="1">
          <mxGeometry width="50" height="50" relative="1" as="geometry">
            <mxPoint x="456" y="-110" as="sourcePoint" />
            <mxPoint x="576" y="-111" as="targetPoint" />
          </mxGeometry>
        </mxCell>
        <mxCell id="W14jXyaXf3J3MWAlNBi8-102" value="&lt;font style=&quot;font-size: 18px;&quot;&gt;WValid&lt;/font&gt;" style="text;html=1;align=center;verticalAlign=middle;resizable=0;points=[];autosize=1;strokeColor=none;fillColor=none;" vertex="1" parent="1">
          <mxGeometry x="475" y="-146" width="80" height="40" as="geometry" />
        </mxCell>
        <mxCell id="W14jXyaXf3J3MWAlNBi8-103" value="" style="endArrow=classic;html=1;rounded=0;strokeWidth=3;" edge="1" parent="1">
          <mxGeometry width="50" height="50" relative="1" as="geometry">
            <mxPoint x="455" y="-72" as="sourcePoint" />
            <mxPoint x="575" y="-73" as="targetPoint" />
          </mxGeometry>
        </mxCell>
        <mxCell id="W14jXyaXf3J3MWAlNBi8-104" value="&lt;span style=&quot;font-size: 18px;&quot;&gt;[31:0] WData&lt;/span&gt;" style="text;html=1;align=center;verticalAlign=middle;resizable=0;points=[];autosize=1;strokeColor=none;fillColor=none;" vertex="1" parent="1">
          <mxGeometry x="450" y="-110" width="130" height="40" as="geometry" />
        </mxCell>
        <mxCell id="W14jXyaXf3J3MWAlNBi8-105" value="" style="endArrow=classic;html=1;rounded=0;strokeWidth=3;" edge="1" parent="1">
          <mxGeometry width="50" height="50" relative="1" as="geometry">
            <mxPoint x="458" y="-34" as="sourcePoint" />
            <mxPoint x="578" y="-34" as="targetPoint" />
          </mxGeometry>
        </mxCell>
        <mxCell id="W14jXyaXf3J3MWAlNBi8-106" value="&lt;span style=&quot;font-size: 18px;&quot;&gt;WLast&lt;/span&gt;" style="text;html=1;align=center;verticalAlign=middle;resizable=0;points=[];autosize=1;strokeColor=none;fillColor=none;" vertex="1" parent="1">
          <mxGeometry x="473" y="-70" width="70" height="40" as="geometry" />
        </mxCell>
        <mxCell id="W14jXyaXf3J3MWAlNBi8-107" value="" style="endArrow=classic;html=1;rounded=0;strokeWidth=3;" edge="1" parent="1">
          <mxGeometry width="50" height="50" relative="1" as="geometry">
            <mxPoint x="740" y="-2" as="sourcePoint" />
            <mxPoint x="860" y="-3" as="targetPoint" />
          </mxGeometry>
        </mxCell>
        <mxCell id="W14jXyaXf3J3MWAlNBi8-108" value="&lt;font style=&quot;font-size: 18px;&quot;&gt;ARValid&lt;/font&gt;" style="text;html=1;align=center;verticalAlign=middle;resizable=0;points=[];autosize=1;strokeColor=none;fillColor=none;" vertex="1" parent="1">
          <mxGeometry x="754" y="-38" width="90" height="40" as="geometry" />
        </mxCell>
        <mxCell id="W14jXyaXf3J3MWAlNBi8-109" value="" style="endArrow=classic;html=1;rounded=0;strokeWidth=3;" edge="1" parent="1">
          <mxGeometry width="50" height="50" relative="1" as="geometry">
            <mxPoint x="739" y="36" as="sourcePoint" />
            <mxPoint x="859" y="35" as="targetPoint" />
          </mxGeometry>
        </mxCell>
        <mxCell id="W14jXyaXf3J3MWAlNBi8-110" value="&lt;span style=&quot;font-size: 18px;&quot;&gt;[31:0] ARADDR&lt;/span&gt;" style="text;html=1;align=center;verticalAlign=middle;resizable=0;points=[];autosize=1;strokeColor=none;fillColor=none;" vertex="1" parent="1">
          <mxGeometry x="734" width="150" height="40" as="geometry" />
        </mxCell>
      </root>
    </mxGraphModel>
  </diagram>
</mxfile>
